<svg width="512" height="512" viewBox="0 0 512 512" fill="none" xmlns="http://www.w3.org/2000/svg">
<rect width="512" height="512" fill="#B42E2E"/>
<path fill-rule="evenodd" clip-rule="evenodd" d="M392.729 148.598H95.7273C99.5583 142.15 103.65 135.689 108.013 129.214C133.794 117.385 161.001 108.975 188.948 104.195C192.768 111.049 196.226 118.1 199.307 125.318C229.057 120.821 259.31 120.821 289.06 125.318C292.139 118.099 295.597 111.048 299.419 104.195C327.348 108.935 354.537 117.325 380.292 129.152C384.656 135.553 388.804 142.034 392.729 148.598Z" fill="#EBFF00"/>
<path fill-rule="evenodd" clip-rule="evenodd" d="M401.699 150.23H102.763C90.0737 171.827 80.3038 193.276 73.0688 214.598H431.409C423.858 192.264 413.878 170.837 401.699 150.23Z" fill="#EBFF00"/>
<path fill-rule="evenodd" clip-rule="evenodd" d="M416.999 217.142L78.4159 223.052C71.9938 243.498 68.0077 263.779 66.0822 283.919L155.903 282.351C154.711 278.672 154.03 274.724 153.958 270.61C153.602 250.218 167.832 233.243 186.507 232.917C205.182 232.591 220.402 249.052 220.438 269.45C220.446 273.565 219.88 277.535 218.818 281.253L278.606 280.209C277.417 276.53 276.738 272.582 276.667 268.468C276.311 248.076 290.54 231.101 309.244 230.775C327.948 230.448 343.052 246.911 343.089 267.309C343.096 271.424 342.531 275.394 341.472 279.112L431.412 277.542C428.663 256.6 423.802 236.489 416.999 217.142Z" fill="#EBFF00"/>
<path fill-rule="evenodd" clip-rule="evenodd" d="M455.817 285.23H357.019C351.038 297.225 339.731 305.346 326.347 305.346C313.193 305.346 301.633 297.225 295.572 285.23H226.808C220.817 297.225 209.496 305.346 196.112 305.346C182.979 305.346 171.397 297.225 165.32 285.23H66.6216C64.6321 306.79 64.8402 328.239 66.833 349.598H154.173C156.874 347.626 159.517 345.6 162.073 343.632C166.609 345.772 171.206 347.761 175.856 349.598H346.603C351.253 347.761 355.85 345.772 360.386 343.632C362.964 345.743 365.6 347.768 368.265 349.598H455.63C457.724 327.382 457.739 305.944 455.817 285.23Z" fill="#EBFF00"/>
<path fill-rule="evenodd" clip-rule="evenodd" d="M444.296 374.366L356.303 369.754C346.067 374.941 335.426 379.285 324.487 382.745C329.948 395.073 336.444 406.913 343.904 418.137C379.599 409.352 413.546 394.549 444.296 374.366ZM332.52 368.508L170.502 360.017C195.872 371.012 223.04 377.412 250.746 378.864C278.451 380.316 306.14 376.791 332.52 368.508ZM146.718 358.77L58.769 354.161C87.2257 377.413 119.398 395.677 153.931 408.181C162.517 397.782 170.215 386.676 176.943 374.981C166.445 370.409 156.337 364.987 146.718 358.77Z" fill="#EBFF00"/>
<path fill-rule="evenodd" clip-rule="evenodd" d="M384.729 147.598H87.7273C91.5583 141.15 95.6501 134.689 100.013 128.214C125.794 116.385 153.001 107.975 180.948 103.195C184.768 110.049 188.226 117.1 191.307 124.318C221.057 119.821 251.31 119.821 281.06 124.318C284.139 117.099 287.597 110.048 291.419 103.195C319.348 107.935 346.537 116.325 372.292 128.152C376.656 134.553 380.804 141.034 384.729 147.598Z" fill="#007B96"/>
<path fill-rule="evenodd" clip-rule="evenodd" d="M393.699 149.23L94.7629 149.23C82.0737 170.827 72.3038 192.276 65.0688 213.598H423.409C415.858 191.264 405.878 169.837 393.699 149.23Z" fill="#007B96"/>
<path fill-rule="evenodd" clip-rule="evenodd" d="M408.999 216.142L70.4159 222.052C63.9938 242.498 60.0077 262.779 58.0822 282.919L147.903 281.351C146.711 277.672 146.03 273.724 145.958 269.61C145.602 249.218 159.832 232.243 178.507 231.917C197.182 231.591 212.402 248.052 212.438 268.45C212.446 272.565 211.88 276.535 210.818 280.253L270.606 279.209C269.417 275.53 268.738 271.582 268.667 267.468C268.311 247.076 282.54 230.101 301.244 229.775C319.948 229.448 335.052 245.911 335.089 266.309C335.096 270.424 334.531 274.394 333.472 278.112L423.412 276.542C420.663 255.6 415.802 235.489 408.999 216.142Z" fill="#007B96"/>
<path fill-rule="evenodd" clip-rule="evenodd" d="M447.817 284.23L349.019 284.23C343.038 296.225 331.731 304.346 318.347 304.346C305.193 304.346 293.633 296.225 287.572 284.23H218.808C212.817 296.225 201.496 304.346 188.112 304.346C174.979 304.346 163.397 296.225 157.32 284.23L58.6216 284.23C56.6321 305.79 56.8402 327.239 58.833 348.598H146.173C148.874 346.626 151.517 344.6 154.073 342.632C158.609 344.772 163.206 346.761 167.856 348.598H338.603C343.253 346.761 347.85 344.772 352.386 342.632C354.964 344.743 357.6 346.768 360.265 348.598H447.63C449.724 326.382 449.739 304.944 447.817 284.23Z" fill="#007B96"/>
<path fill-rule="evenodd" clip-rule="evenodd" d="M436.296 373.366L348.303 368.754C338.067 373.941 327.426 378.285 316.487 381.745C321.948 394.073 328.444 405.913 335.904 417.137C371.6 408.352 405.546 393.549 436.296 373.366ZM324.52 367.508L162.502 359.017C187.872 370.012 215.04 376.412 242.746 377.864C270.451 379.316 298.14 375.791 324.52 367.508ZM138.718 357.77L50.769 353.161C79.2257 376.413 111.398 394.677 145.931 407.181C154.517 396.782 162.215 385.676 168.943 373.981C158.445 369.409 148.337 363.987 138.718 357.77Z" fill="#007B96"/>
<path fill-rule="evenodd" clip-rule="evenodd" d="M389.729 143.598H92.7273C96.5583 137.15 100.65 130.689 105.013 124.214C130.794 112.385 158.001 103.975 185.948 99.1954C189.768 106.049 193.226 113.1 196.307 120.318C226.057 115.821 256.31 115.821 286.06 120.318C289.139 113.099 292.597 106.048 296.419 99.1954C324.348 103.935 351.537 112.325 377.292 124.152C381.656 130.553 385.804 137.034 389.729 143.598Z" fill="white"/>
<path fill-rule="evenodd" clip-rule="evenodd" d="M398.699 145.23L99.7629 145.23C87.0737 166.827 77.3038 188.276 70.0688 209.598H428.409C420.858 187.264 410.878 165.837 398.699 145.23Z" fill="white"/>
<path fill-rule="evenodd" clip-rule="evenodd" d="M413.999 212.142L75.4159 218.052C68.9938 238.498 65.0077 258.779 63.0822 278.919L152.903 277.351C151.711 273.672 151.03 269.724 150.958 265.61C150.602 245.218 164.832 228.243 183.507 227.917C202.182 227.591 217.402 244.052 217.438 264.45C217.446 268.565 216.88 272.535 215.818 276.253L275.606 275.209C274.417 271.53 273.738 267.582 273.667 263.468C273.311 243.076 287.54 226.101 306.244 225.775C324.948 225.448 340.052 241.911 340.089 262.309C340.096 266.424 339.531 270.394 338.472 274.112L428.412 272.542C425.663 251.6 420.802 231.489 413.999 212.142Z" fill="white"/>
<path fill-rule="evenodd" clip-rule="evenodd" d="M452.817 280.23L354.019 280.23C348.038 292.225 336.731 300.346 323.347 300.346C310.193 300.346 298.633 292.225 292.572 280.23H223.808C217.817 292.225 206.496 300.346 193.112 300.346C179.979 300.346 168.397 292.225 162.32 280.23L63.6216 280.23C61.6321 301.79 61.8402 323.239 63.833 344.598H151.173C153.874 342.626 156.517 340.6 159.073 338.632C163.609 340.772 168.206 342.761 172.856 344.598H343.603C348.253 342.761 352.85 340.772 357.386 338.632C359.964 340.743 362.6 342.768 365.265 344.598H452.63C454.724 322.382 454.739 300.944 452.817 280.23Z" fill="white"/>
<path fill-rule="evenodd" clip-rule="evenodd" d="M441.296 369.366L353.303 364.754C343.067 369.941 332.426 374.285 321.487 377.745C326.948 390.073 333.444 401.913 340.904 413.137C376.6 404.352 410.546 389.549 441.296 369.366ZM329.52 363.508L167.502 355.017C192.872 366.012 220.04 372.412 247.746 373.864C275.451 375.316 303.14 371.791 329.52 363.508ZM143.718 353.77L55.769 349.161C84.2257 372.413 116.398 390.677 150.931 403.181C159.517 392.782 167.215 381.676 173.943 369.981C163.445 365.409 153.337 359.987 143.718 353.77Z" fill="white"/>
<rect x="39.4078" y="374.585" width="28.5396" height="28.5396" transform="rotate(20 39.4078 374.585)" fill="#007B96"/>
<rect x="329.408" y="54.5847" width="28.5396" height="28.5396" transform="rotate(20 329.408 54.5847)" fill="#EBFF00"/>
<rect x="325.408" y="56.5847" width="28.5396" height="28.5396" transform="rotate(20 325.408 56.5847)" fill="#007B96"/>
</svg>
